SplineFontDB: 3.0
FontName: WalbaumStM
FullName: Sorts Mill Walbaum
FamilyName: Sorts Mill Walbaum
Weight: Regular
Copyright: Copyright (C) 2010 Barry Schwartz
UComments: "2010-2-2: Created." 
Version: 001.000
ItalicAngle: 0
UnderlinePosition: -100
UnderlineWidth: 50
Ascent: 700
Descent: 300
LayerCount: 3
Layer: 0 0 "Back"  1
Layer: 1 0 "Fore"  0
Layer: 2 0 "backup"  0
NeedsXUIDChange: 1
XUID: [1021 658 797806517 10056847]
FSType: 0
OS2Version: 0
OS2_WeightWidthSlopeOnly: 0
OS2_UseTypoMetrics: 1
CreationTime: 1265176368
ModificationTime: 1265276078
OS2TypoAscent: 0
OS2TypoAOffset: 1
OS2TypoDescent: 0
OS2TypoDOffset: 1
OS2TypoLinegap: 90
OS2WinAscent: 0
OS2WinAOffset: 1
OS2WinDescent: 0
OS2WinDOffset: 1
HheadAscent: 0
HheadAOffset: 1
HheadDescent: 0
HheadDOffset: 1
MarkAttachClasses: 1
DEI: 91125
LangName: 1033 
Encoding: UnicodeBmp
UnicodeInterp: none
NameList: Adobe Glyph List
DisplaySize: -72
AntiAlias: 1
FitToEm: 1
WinInfo: 64 8 6
BeginChars: 65536 73

StartChar: a
Encoding: 97 97 0
Width: 434
VWidth: 0
Flags: W
HStem: -8 44<131.218 227.342 353.16 422.859> 380 31<151.933 244.363>
VStem: 31 85<50.2813 171.258> 45 89<273.19 366.946> 266 87<66.3157 202 230 360.066> 274 79<33.6293 66>
LayerCount: 3
Fore
SplineSet
178 36 m 0xe8
 222 36 266 67 266 134 c 2
 266 202 l 1
 223 200 155 189 136 170 c 0
 119 153 116 139 116 111 c 0
 116 57 144 36 178 36 c 0xe8
208 380 m 0
 170 380 134 373 134 310 c 0
 134 290 139 279 139 276 c 0
 139 269 114 268 91 268 c 0
 67 268 45 279 45 321 c 0
 45 382 117 411 209 411 c 0
 299 411 351 370 351 287 c 0
 351 196.599609375 353 196.599609375 353 61 c 0
 353 37 354 33 375 33 c 0
 381 33 410 35 410 35 c 2
 415 35 423 32 423 18 c 0
 423 4 420 -2 394 -2 c 0
 269 -2 279 6 274 66 c 1xd4
 267 52 259 42 248 31 c 0
 220 2 188 -8 159 -8 c 0
 87 -8 60 25 57 28 c 0
 41 47 31 74 31 111 c 0
 31 152 47 204 146 217 c 0
 177 221 205 225 265 230 c 1
 265 245 266 261 266 277 c 0
 266 325 259 380 208 380 c 0
EndSplineSet
Validated: 524289
Layer: 2
SplineSet
168 36 m 0xb8
 212 36 256 67 256 134 c 2
 256 202 l 1
 213 200 145 189 126 170 c 0
 109 153 106 139 106 111 c 0
 106 57 134 36 168 36 c 0xb8
198 380 m 0
 160.231649058 380 123.653460388 372.49787707 123.653460388 309.962774272 c 0
 123.653460388 289.753589192 129.104695795 279.648996652 129.104695795 276.280799139 c 0
 129.104695795 269.008319069 104 268 81 268 c 0
 57 268 35 279 35 321 c 0
 35 382 107 411 199 411 c 0
 289 411 341 370 341 287 c 0
 341 199 343 190 343 91 c 2
 343 75 l 2xb8
 343 39 359 34 383 34 c 0
 386 34 413 35 413 35 c 1
 413 0 l 1
 413 0 388 -2 384 -2 c 0
 259 -2 269 6 264 66 c 1x74
 257 52 249 42 238 31 c 0
 210 2 178 -8 149 -8 c 0
 77 -8 50 25 47 28 c 0
 31 47 21 74 21 111 c 0
 21 152 37 204 136 217 c 0
 167 221 195 225 255 230 c 1
 255 245 256 261 256 277 c 0
 256 325 249 380 198 380 c 0
EndSplineSet
EndChar

StartChar: b
Encoding: 98 98 1
Width: 532
VWidth: 0
Flags: W
HStem: -12 41<238.429 356.719> 379 35<235.116 341.005> 627 40<3 95>
VStem: 92 74<-11.019 72> 95 89<77.3726 339.615 365 627> 400 94<94.6791 313.804>
LayerCount: 3
Fore
SplineSet
179 275 m 2xe4
 179 162 l 2
 179 71 246 29 299 29 c 0
 364 29 400 77 400 208 c 0
 400 316 354 379 293 379 c 0
 243 379 179 338 179 275 c 2xe4
172 72 m 1
 172 45 172 18 166 -8 c 0
 165 -10 164 -12 154 -12 c 0
 124 -12 100 -12 92 -5 c 1xf4
 95 80 95 122 95 154 c 2
 95 627 l 1
 3 627 l 1
 3 667 l 1
 184 667 l 1
 184 365 l 1xec
 184 365 218 414 312 414 c 0
 434 414 494 319 494 212 c 0
 494 98 444 -12 324 -12 c 0
 212 -12 172 72 172 72 c 1
EndSplineSet
Validated: 1
EndChar

StartChar: c
Encoding: 99 99 2
Width: 445
VWidth: 0
Flags: W
HStem: -12 43<176.353 322.12> 379 34<181.286 306.283>
VStem: 28 97<89.6041 297.559> 326 76<255.279 355.81>
LayerCount: 3
Fore
SplineSet
326 321 m 0
 326 367 283 379 243 379 c 0
 176 379 125 336 125 221 c 0
 125 65 172 31 255 31 c 0
 314 31 340 64 351 87 c 0
 364 112 361 116 382 116 c 0
 393 116 398 104 398 104 c 1
 398 87 365 -12 238 -12 c 0
 99 -12 28 71 28 190 c 0
 28 326 112 413 237 413 c 0
 382 413 402 325 402 297 c 0
 402 280 394 251 362 251 c 0
 332 251 324 271 324 290 c 0
 324 300 326 311 326 321 c 0
EndSplineSet
Validated: 1
Layer: 2
SplineSet
398 104 m 1
 398 87 365 -12 238 -12 c 0
 99 -12 28 81 28 200 c 0
 28 336 112 413 237 413 c 0
 382 413 402 322 402 294 c 0
 402 277 394 251 362 251 c 0
 275 251 373 378 224 378 c 0
 168 378 124 331 124 207 c 0
 124 104 150 31 253 31 c 0
 312 31 340 64 351 87 c 0
 364 112 361 116 382 116 c 0
 393 116 398 104 398 104 c 1
224 378 m 0
 168 378 124 331 124 207 c 0
 124 103 150 31 256 31 c 0
 351 31 362 114 362 114 c 2
 365 116 370 116 375 116 c 0
 387 116 403 112 404 108 c 1
 404 108 388 -12 245 -12 c 0
 101 -12 28 79 28 200 c 0
 28 336 112 413 237 413 c 0
 382 413 402 322 402 294 c 0
 402 277 394 251 362 251 c 0
 275 251 373 378 224 378 c 0
EndSplineSet
EndChar

StartChar: d
Encoding: 100 100 3
Width: 517
VWidth: 0
Flags: W
HStem: -10 45<176.183 291.217> 0 36<414 502> 368 44<168.32 293.018> 627 40<233 324>
VStem: 29 95<97.8282 309.634> 324 96<405.04 627> 332 79<60.5286 340.27 368 440.05>
LayerCount: 3
Fore
SplineSet
212 412 m 0xba
 279.236999512 412 327 368 327 368 c 1
 324 627 l 1
 233 627 l 1
 233 667 l 1
 420 667 l 1xbc
 415 564 411 526 411 199 c 0
 411 69 414 36 414 36 c 1
 502 36 l 1
 502 0 l 1
 340 0 l 1x7a
 339 59 l 1
 316 22 273 -10 211 -10 c 0
 120 -10 29 52 29 198 c 0
 29 368 139 412 212 412 c 0xba
124 208 m 0
 124 117 154 35 241 35 c 0
 293 35 332 64 332 119 c 2
 332 278 l 2xba
 332 336 296 368 230 368 c 0
 147 368 124 292 124 208 c 0
EndSplineSet
Validated: 524289
EndChar

StartChar: e
Encoding: 101 101 4
Width: 461
VWidth: 0
Flags: WO
HStem: -12 43<177.733 323.18> 225 36<134 314> 378 35<169.405 286.103>
VStem: 28 96<97.9944 267.527> 314 91<264 331.316> 357 45<62.0388 116>
LayerCount: 3
Fore
SplineSet
402 103 m 0xf4
 402 87 370 -12 245 -12 c 0
 101 -12 28 79 28 200 c 0
 28 336 112 413 237 413 c 0
 382 413 405 285 405 257 c 0xf8
 405 232 396 233 361 230 c 0
 331 227 284 225 266 225 c 0
 190 225 132 230 131 230 c 0
 130 230 124 229 124 207 c 0
 124 103 150 31 256 31 c 0
 318 31 346 69 357 95 c 0
 360 101 360 116 379 116 c 0
 381 116 383 116 385 116 c 0
 397 114 402 111 402 103 c 0xf4
314 264 m 1
 314 330 305 378 224 378 c 0
 140 378 142 310 134 265 c 1
 134 265 173 261 208 261 c 0
 259 261 313 264 314 264 c 1
EndSplineSet
Validated: 1
Layer: 2
SplineSet
314 264 m 5
 314 330 305 378 224 378 c 4
 140 378 142 310 134 265 c 5xbc
 149 264 173 261 208 261 c 4
 259 261 313 264 314 264 c 5
245 -12 m 0xba
 101 -12 28 79 28 200 c 0
 28 336 112 413 237 413 c 0
 382 413 405 285 405 257 c 0
 405 232 396 233 361 230 c 0
 331 227 284 225 266 225 c 0xdc
 191 225 131 232 131 232 c 1
 131 232 124 232 124 207 c 0
 124 103 150 31 256 31 c 0
 351 31 362 114 362 114 c 2
 365 116 370 116 375 116 c 0
 387 116 403 112 404 108 c 1
 404 108 388 -12 245 -12 c 0xba
EndSplineSet
EndChar

StartChar: f
Encoding: 102 102 5
Width: 351
VWidth: 0
Flags: W
HStem: 0 36<39 118 205 302> 362 40<29 116 204 315> 640 36<224.594 301.822>
VStem: 116 88<36 362 402 601.261> 306 86<547.906 637.198>
LayerCount: 3
Fore
SplineSet
204 402 m 1
 315 402 l 1
 315 362 l 1
 204 362 l 1
 205 36 l 1
 302 36 l 1
 302 0 l 1
 39 0 l 1
 39 36 l 1
 118 36 l 1
 116 362 l 1
 29 362 l 1
 29 402 l 1
 116 402 l 1
 116 476 l 2
 116 654 195 676 273 676 c 0
 351 676 392 640 392 589 c 0
 392 555 369 542 346 542 c 0
 310 542 306 572 306 593 c 2
 306 606 l 2
 306 631 293 640 261 640 c 0
 217 640 206 601 205 527 c 2
 204 402 l 1
EndSplineSet
Validated: 1
Layer: 2
SplineSet
204 401 m 5
 315 404 l 5
 315 358 l 5
 204 361 l 5
 205 36 l 5
 302 39 l 5
 302 -3 l 5
 166 0 l 5
 37 -4 l 5
 37 37 l 5
 118 36 l 5
 116 361 l 5
 30 359 l 5
 30 403 l 5
 116 401 l 5
 116 476 l 6
 116 654 195 676 273 676 c 4
 351 676 392 640 392 589 c 4
 392 555 369 542 346 542 c 4
 310 542 306 572 306 593 c 6
 306 606 l 6
 306 631 293 640 261 640 c 4
 217 640 206 601 205 527 c 6
 204 401 l 5
EndSplineSet
EndChar

StartChar: g
Encoding: 103 103 6
Width: 519
VWidth: 0
Flags: W
HStem: -268 34<142.856 305.242> -53 97<98.2805 357.1> 112 29<201.39 279.602> 350 34<395.847 460.5> 379 29<197.981 277.685>
VStem: 31 44<49.8665 123.592> 32 54<-188.355 -77.8837> 85 83<174.258 340.222> 309 84<178.623 333.55> 374 58<-181.377 -71.41> 433 69<294.281 349.164>
LayerCount: 3
Fore
SplineSet
118 -49 m 1xe260
 118 -49 86 -73 86 -125 c 0
 86 -181 129 -234 219 -234 c 0
 335 -234 374 -171 374 -125 c 0
 374 -86 368 -53 263 -53 c 2
 192 -53 l 2
 173 -53 118 -49 118 -49 c 1xe260
237 408 m 0xed20
 333 408 372 342 372 342 c 1
 383 358 406 384 446 384 c 0
 475 384 502 369 502 332 c 0
 502 296 478 292 467 292 c 0
 442 292 433 305 433 321 c 2
 433 327 l 2
 433 336 432 350 423 350 c 0
 399 350 384 324 384 324 c 1
 384 324 393 300 393 258 c 0
 393 155 311 112 237 112 c 0
 169 112 131 142 131 142 c 1
 114 139 75 123 75 84 c 0xf5a0
 75 46 104 44 135 44 c 2
 251 44 l 2
 354 44 432 28 432 -100 c 0
 432 -220 328 -268 222 -268 c 0
 83 -268 32 -214 32 -140 c 0xf260
 32 -73 96 -42 96 -42 c 1
 96 -42 31 -10 31 69 c 0
 31 128 96 158 114 164 c 1
 114 164 85 196 85 265 c 0
 85 334 138 408 237 408 c 0xed20
309 254 m 0
 309 307 302 379 237 379 c 0xe9a0
 178 379 168 313 168 264 c 0
 168 218 178 141 240 141 c 0
 302 141 309 204 309 254 c 0
EndSplineSet
Validated: 1
EndChar

StartChar: h
Encoding: 104 104 7
Width: 556
VWidth: 0
Flags: W
HStem: 0 36<22 91 182 262 296 376 465 534> 374 41<251.054 363.25> 627 40<18 91>
VStem: 91 84<36.0257 298.918 333 488.867> 376 89<36 363.519>
LayerCount: 3
Fore
SplineSet
91 36 m 1
 91 627 l 1
 18 627 l 1
 18 667 l 1
 190 667 l 1
 175 333 l 1
 187 343 237 415 337 415 c 0
 377 415 418 400 432 388 c 0
 462 362 465 330 465 302 c 2
 465 36 l 1
 534 36 l 1
 534 0 l 1
 296 0 l 1
 296 36 l 1
 376 36 l 1
 376 284 l 2
 376 312 375 331 369 344 c 0
 354 373 340 374 316 374 c 0
 266 374 180 332 180 230 c 2
 180 162 l 2
 180 71 182 36 182 36 c 1
 262 36 l 1
 262 0 l 1
 22 0 l 1
 22 36 l 1
 91 36 l 1
EndSplineSet
Validated: 1
EndChar

StartChar: i
Encoding: 105 105 8
Width: 309
VWidth: 0
Flags: W
HStem: 0 36<28 110 199 274> 369 40<28 110> 563 96<112.174 191.557>
VStem: 104 95<36 369 570.812 651.073>
LayerCount: 3
Fore
SplineSet
28 409 m 25
 199 409 l 25
 199 36 l 25
 274 36 l 25
 275 0 l 25
 28 0 l 25
 28 36 l 25
 110 36 l 25
 110 369 l 25
 28 369 l 25
 28 409 l 25
104 611 m 0
 104 637 126 659 149 659 c 0
 166 659 199 649 199 610 c 0
 199 575 176 563 151 563 c 0
 125 563 104 585 104 611 c 0
EndSplineSet
Validated: 1
EndChar

StartChar: j
Encoding: 106 106 9
Width: 240
VWidth: 0
Flags: W
HStem: 240 94<82.5012 158.468>
VStem: 70 100<251.852 326.6>
LayerCount: 3
Fore
SplineSet
70 294 m 0
 70 320 96 334 119 334 c 0
 143 334 170 320 170 293 c 0
 170 268 147 240 121 240 c 0
 95 240 70 268 70 294 c 0
EndSplineSet
Validated: 1
EndChar

StartChar: k
Encoding: 107 107 10
Width: 558
VWidth: 0
Flags: W
HStem: 0 32<27 106 193 251 297 346 448 521> 195 30<193 228> 378 32<251 326.832 389.229 475> 632 38<19 104>
VStem: 106 87<32 195 225 636>
LayerCount: 3
Fore
SplineSet
251 410 m 1
 475 410 l 1
 475 378 l 1
 389.228571429 378 l 1
 282 239 l 1
 448 32 l 1
 521 32 l 1
 521 0 l 1
 297 0 l 1
 297 32 l 1
 346 32 l 1
 230 195 l 1
 193 195 l 1
 193 32 l 1
 251 32 l 1
 251 0 l 1
 27 0 l 1
 27 32 l 1
 106 32 l 1
 106 340 l 2
 106 460 105 606 104 636 c 1
 19 632 l 1
 17 670 l 1
 198 673 l 1
 194 595 193 407 193 340 c 2
 193 225 l 1
 228 225 l 1
 326.832298137 378 l 1
 251 378 l 1
 251 410 l 1
EndSplineSet
Validated: 524289
EndChar

StartChar: l
Encoding: 108 108 11
Width: 286
VWidth: 0
Flags: W
HStem: 0 32<22 101 188 266> 632 38<14 99>
VStem: 101 87<32 636>
LayerCount: 3
Fore
SplineSet
266 32 m 1
 266 0 l 1
 22 0 l 1
 22 32 l 1
 101 32 l 1
 101 340 l 2
 101 460 100 606 99 636 c 1
 14 632 l 1
 12 670 l 1
 193 673 l 1
 189 595 188 407 188 340 c 2
 188 32 l 1
 266 32 l 1
EndSplineSet
Validated: 1
Layer: 2
SplineSet
25 672 m 21xd0
 204 675 l 5xb0
 201 613 201 566 201 527 c 6
 201 79 l 6
 201 36 203 34 230 34 c 6
 285 35 l 13
 283 -2 l 21
 243 0 218 0 200 0 c 6
 122 0 l 6
 104 0 76 0 24 -2 c 13
 25 35 l 21
 79 34 l 6
 109 34 111 37 111 76 c 6
 111 429 l 6
 111 630 111 631 93 631 c 4
 68 631 59 631 24 630 c 13
 25 672 l 21xd0
EndSplineSet
EndChar

StartChar: m
Encoding: 109 109 12
Width: 240
VWidth: 0
Flags: W
HStem: 240 94<82.5012 158.468>
VStem: 70 100<251.852 326.6>
LayerCount: 3
Fore
SplineSet
70 294 m 0
 70 320 96 334 119 334 c 0
 143 334 170 320 170 293 c 0
 170 268 147 240 121 240 c 0
 95 240 70 268 70 294 c 0
EndSplineSet
Validated: 1
EndChar

StartChar: n
Encoding: 110 110 13
Width: 240
VWidth: 0
Flags: W
HStem: 240 94<82.5012 158.468>
VStem: 70 100<251.852 326.6>
LayerCount: 3
Fore
SplineSet
70 294 m 0
 70 320 96 334 119 334 c 0
 143 334 170 320 170 293 c 0
 170 268 147 240 121 240 c 0
 95 240 70 268 70 294 c 0
EndSplineSet
Validated: 1
EndChar

StartChar: o
Encoding: 111 111 14
Width: 240
VWidth: 0
Flags: W
HStem: 240 94<82.5012 158.468>
VStem: 70 100<251.852 326.6>
LayerCount: 3
Fore
SplineSet
70 294 m 0
 70 320 96 334 119 334 c 0
 143 334 170 320 170 293 c 0
 170 268 147 240 121 240 c 0
 95 240 70 268 70 294 c 0
EndSplineSet
Validated: 1
EndChar

StartChar: p
Encoding: 112 112 15
Width: 240
VWidth: 0
Flags: W
HStem: 240 94<82.5012 158.468>
VStem: 70 100<251.852 326.6>
LayerCount: 3
Fore
SplineSet
70 294 m 0
 70 320 96 334 119 334 c 0
 143 334 170 320 170 293 c 0
 170 268 147 240 121 240 c 0
 95 240 70 268 70 294 c 0
EndSplineSet
Validated: 1
EndChar

StartChar: q
Encoding: 113 113 16
Width: 240
VWidth: 0
Flags: W
HStem: 240 94<82.5012 158.468>
VStem: 70 100<251.852 326.6>
LayerCount: 3
Fore
SplineSet
70 294 m 0
 70 320 96 334 119 334 c 0
 143 334 170 320 170 293 c 0
 170 268 147 240 121 240 c 0
 95 240 70 268 70 294 c 0
EndSplineSet
Validated: 1
EndChar

StartChar: r
Encoding: 114 114 17
Width: 240
VWidth: 0
Flags: W
HStem: 240 94<82.5012 158.468>
VStem: 70 100<251.852 326.6>
LayerCount: 3
Fore
SplineSet
70 294 m 0
 70 320 96 334 119 334 c 0
 143 334 170 320 170 293 c 0
 170 268 147 240 121 240 c 0
 95 240 70 268 70 294 c 0
EndSplineSet
Validated: 1
EndChar

StartChar: s
Encoding: 115 115 18
Width: 240
VWidth: 0
Flags: W
HStem: 240 94<82.5012 158.468>
VStem: 70 100<251.852 326.6>
LayerCount: 3
Fore
SplineSet
70 294 m 0
 70 320 96 334 119 334 c 0
 143 334 170 320 170 293 c 0
 170 268 147 240 121 240 c 0
 95 240 70 268 70 294 c 0
EndSplineSet
Validated: 1
EndChar

StartChar: t
Encoding: 116 116 19
Width: 240
VWidth: 0
Flags: W
HStem: 240 94<82.5012 158.468>
VStem: 70 100<251.852 326.6>
LayerCount: 3
Fore
SplineSet
70 294 m 0
 70 320 96 334 119 334 c 0
 143 334 170 320 170 293 c 0
 170 268 147 240 121 240 c 0
 95 240 70 268 70 294 c 0
EndSplineSet
Validated: 1
EndChar

StartChar: u
Encoding: 117 117 20
Width: 240
VWidth: 0
Flags: W
HStem: 240 94<82.5012 158.468>
VStem: 70 100<251.852 326.6>
LayerCount: 3
Fore
SplineSet
70 294 m 0
 70 320 96 334 119 334 c 0
 143 334 170 320 170 293 c 0
 170 268 147 240 121 240 c 0
 95 240 70 268 70 294 c 0
EndSplineSet
Validated: 1
EndChar

StartChar: v
Encoding: 118 118 21
Width: 240
VWidth: 0
Flags: W
HStem: 240 94<82.5012 158.468>
VStem: 70 100<251.852 326.6>
LayerCount: 3
Fore
SplineSet
70 294 m 0
 70 320 96 334 119 334 c 0
 143 334 170 320 170 293 c 0
 170 268 147 240 121 240 c 0
 95 240 70 268 70 294 c 0
EndSplineSet
Validated: 1
EndChar

StartChar: w
Encoding: 119 119 22
Width: 240
VWidth: 0
Flags: W
HStem: 240 94<82.5012 158.468>
VStem: 70 100<251.852 326.6>
LayerCount: 3
Fore
SplineSet
70 294 m 0
 70 320 96 334 119 334 c 0
 143 334 170 320 170 293 c 0
 170 268 147 240 121 240 c 0
 95 240 70 268 70 294 c 0
EndSplineSet
Validated: 1
EndChar

StartChar: x
Encoding: 120 120 23
Width: 240
VWidth: 0
Flags: W
HStem: 240 94<82.5012 158.468>
VStem: 70 100<251.852 326.6>
LayerCount: 3
Fore
SplineSet
70 294 m 0
 70 320 96 334 119 334 c 0
 143 334 170 320 170 293 c 0
 170 268 147 240 121 240 c 0
 95 240 70 268 70 294 c 0
EndSplineSet
Validated: 1
EndChar

StartChar: y
Encoding: 121 121 24
Width: 240
VWidth: 0
Flags: W
HStem: 240 94<82.5012 158.468>
VStem: 70 100<251.852 326.6>
LayerCount: 3
Fore
SplineSet
70 294 m 0
 70 320 96 334 119 334 c 0
 143 334 170 320 170 293 c 0
 170 268 147 240 121 240 c 0
 95 240 70 268 70 294 c 0
EndSplineSet
Validated: 1
EndChar

StartChar: z
Encoding: 122 122 25
Width: 240
VWidth: 0
Flags: W
HStem: 240 94<82.5012 158.468>
VStem: 70 100<251.852 326.6>
LayerCount: 3
Fore
SplineSet
70 294 m 0
 70 320 96 334 119 334 c 0
 143 334 170 320 170 293 c 0
 170 268 147 240 121 240 c 0
 95 240 70 268 70 294 c 0
EndSplineSet
Validated: 1
EndChar

StartChar: period
Encoding: 46 46 53
Width: 240
VWidth: 0
Flags: W
HStem: 240 94<82.5012 158.468>
VStem: 70 100<251.852 326.6>
LayerCount: 3
Fore
SplineSet
70 294 m 4
 70 320 96 334 119 334 c 4
 143 334 170 320 170 293 c 4
 170 268 147 240 121 240 c 4
 95 240 70 268 70 294 c 4
EndSplineSet
Validated: 1
EndChar

StartChar: hyphen
Encoding: 45 45 54
Width: 240
VWidth: 0
Flags: W
HStem: 240 94<82.5012 158.468>
VStem: 70 100<251.852 326.6>
LayerCount: 3
Fore
SplineSet
70 294 m 4
 70 320 96 334 119 334 c 4
 143 334 170 320 170 293 c 4
 170 268 147 240 121 240 c 4
 95 240 70 268 70 294 c 4
EndSplineSet
Validated: 1
EndChar

StartChar: comma
Encoding: 44 44 55
Width: 240
VWidth: 0
Flags: W
HStem: 240 94<82.5012 158.468>
VStem: 70 100<251.852 326.6>
LayerCount: 3
Fore
SplineSet
70 294 m 4
 70 320 96 334 119 334 c 4
 143 334 170 320 170 293 c 4
 170 268 147 240 121 240 c 4
 95 240 70 268 70 294 c 4
EndSplineSet
Validated: 1
EndChar

StartChar: parenright
Encoding: 41 41 56
Width: 240
VWidth: 0
Flags: W
HStem: 240 94<82.5012 158.468>
VStem: 70 100<251.852 326.6>
LayerCount: 3
Fore
SplineSet
70 294 m 4
 70 320 96 334 119 334 c 4
 143 334 170 320 170 293 c 4
 170 268 147 240 121 240 c 4
 95 240 70 268 70 294 c 4
EndSplineSet
Validated: 1
EndChar

StartChar: parenleft
Encoding: 40 40 57
Width: 240
VWidth: 0
Flags: W
HStem: 240 94<82.5012 158.468>
VStem: 70 100<251.852 326.6>
LayerCount: 3
Fore
SplineSet
70 294 m 4
 70 320 96 334 119 334 c 4
 143 334 170 320 170 293 c 4
 170 268 147 240 121 240 c 4
 95 240 70 268 70 294 c 4
EndSplineSet
Validated: 1
EndChar

StartChar: ampersand
Encoding: 38 38 58
Width: 240
VWidth: 0
Flags: W
HStem: 240 94<82.5012 158.468>
VStem: 70 100<251.852 326.6>
LayerCount: 3
Fore
SplineSet
70 294 m 4
 70 320 96 334 119 334 c 4
 143 334 170 320 170 293 c 4
 170 268 147 240 121 240 c 4
 95 240 70 268 70 294 c 4
EndSplineSet
Validated: 1
EndChar

StartChar: exclam
Encoding: 33 33 59
Width: 240
VWidth: 0
Flags: W
HStem: 240 94<82.5012 158.468>
VStem: 70 100<251.852 326.6>
LayerCount: 3
Fore
SplineSet
70 294 m 4
 70 320 96 334 119 334 c 4
 143 334 170 320 170 293 c 4
 170 268 147 240 121 240 c 4
 95 240 70 268 70 294 c 4
EndSplineSet
Validated: 1
EndChar

StartChar: zero
Encoding: 48 48 60
Width: 240
VWidth: 0
Flags: W
HStem: 240 94<82.5012 158.468>
VStem: 70 100<251.852 326.6>
LayerCount: 3
Fore
SplineSet
70 294 m 4
 70 320 96 334 119 334 c 4
 143 334 170 320 170 293 c 4
 170 268 147 240 121 240 c 4
 95 240 70 268 70 294 c 4
EndSplineSet
Validated: 1
EndChar

StartChar: one
Encoding: 49 49 61
Width: 240
VWidth: 0
Flags: W
HStem: 240 94<82.5012 158.468>
VStem: 70 100<251.852 326.6>
LayerCount: 3
Fore
SplineSet
70 294 m 4
 70 320 96 334 119 334 c 4
 143 334 170 320 170 293 c 4
 170 268 147 240 121 240 c 4
 95 240 70 268 70 294 c 4
EndSplineSet
Validated: 1
EndChar

StartChar: two
Encoding: 50 50 62
Width: 240
VWidth: 0
Flags: W
HStem: 240 94<82.5012 158.468>
VStem: 70 100<251.852 326.6>
LayerCount: 3
Fore
SplineSet
70 294 m 4
 70 320 96 334 119 334 c 4
 143 334 170 320 170 293 c 4
 170 268 147 240 121 240 c 4
 95 240 70 268 70 294 c 4
EndSplineSet
Validated: 1
EndChar

StartChar: three
Encoding: 51 51 63
Width: 240
VWidth: 0
Flags: W
HStem: 240 94<82.5012 158.468>
VStem: 70 100<251.852 326.6>
LayerCount: 3
Fore
SplineSet
70 294 m 4
 70 320 96 334 119 334 c 4
 143 334 170 320 170 293 c 4
 170 268 147 240 121 240 c 4
 95 240 70 268 70 294 c 4
EndSplineSet
Validated: 1
EndChar

StartChar: four
Encoding: 52 52 64
Width: 240
VWidth: 0
Flags: W
HStem: 240 94<82.5012 158.468>
VStem: 70 100<251.852 326.6>
LayerCount: 3
Fore
SplineSet
70 294 m 4
 70 320 96 334 119 334 c 4
 143 334 170 320 170 293 c 4
 170 268 147 240 121 240 c 4
 95 240 70 268 70 294 c 4
EndSplineSet
Validated: 1
EndChar

StartChar: five
Encoding: 53 53 65
Width: 240
VWidth: 0
Flags: W
HStem: 240 94<82.5012 158.468>
VStem: 70 100<251.852 326.6>
LayerCount: 3
Fore
SplineSet
70 294 m 4
 70 320 96 334 119 334 c 4
 143 334 170 320 170 293 c 4
 170 268 147 240 121 240 c 4
 95 240 70 268 70 294 c 4
EndSplineSet
Validated: 1
EndChar

StartChar: six
Encoding: 54 54 66
Width: 240
VWidth: 0
Flags: W
HStem: 240 94<82.5012 158.468>
VStem: 70 100<251.852 326.6>
LayerCount: 3
Fore
SplineSet
70 294 m 4
 70 320 96 334 119 334 c 4
 143 334 170 320 170 293 c 4
 170 268 147 240 121 240 c 4
 95 240 70 268 70 294 c 4
EndSplineSet
Validated: 1
EndChar

StartChar: seven
Encoding: 55 55 67
Width: 240
VWidth: 0
Flags: W
HStem: 240 94<82.5012 158.468>
VStem: 70 100<251.852 326.6>
LayerCount: 3
Fore
SplineSet
70 294 m 4
 70 320 96 334 119 334 c 4
 143 334 170 320 170 293 c 4
 170 268 147 240 121 240 c 4
 95 240 70 268 70 294 c 4
EndSplineSet
Validated: 1
EndChar

StartChar: eight
Encoding: 56 56 68
Width: 240
VWidth: 0
Flags: W
HStem: 240 94<82.5012 158.468>
VStem: 70 100<251.852 326.6>
LayerCount: 3
Fore
SplineSet
70 294 m 4
 70 320 96 334 119 334 c 4
 143 334 170 320 170 293 c 4
 170 268 147 240 121 240 c 4
 95 240 70 268 70 294 c 4
EndSplineSet
Validated: 1
EndChar

StartChar: nine
Encoding: 57 57 69
Width: 240
VWidth: 0
Flags: W
HStem: 240 94<82.5012 158.468>
VStem: 70 100<251.852 326.6>
LayerCount: 3
Fore
SplineSet
70 294 m 4
 70 320 96 334 119 334 c 4
 143 334 170 320 170 293 c 4
 170 268 147 240 121 240 c 4
 95 240 70 268 70 294 c 4
EndSplineSet
Validated: 1
EndChar

StartChar: colon
Encoding: 58 58 70
Width: 240
VWidth: 0
Flags: W
HStem: 240 94<82.5012 158.468>
VStem: 70 100<251.852 326.6>
LayerCount: 3
Fore
SplineSet
70 294 m 4
 70 320 96 334 119 334 c 4
 143 334 170 320 170 293 c 4
 170 268 147 240 121 240 c 4
 95 240 70 268 70 294 c 4
EndSplineSet
Validated: 1
EndChar

StartChar: semicolon
Encoding: 59 59 71
Width: 240
VWidth: 0
Flags: W
HStem: 240 94<82.5012 158.468>
VStem: 70 100<251.852 326.6>
LayerCount: 3
Fore
SplineSet
70 294 m 4
 70 320 96 334 119 334 c 4
 143 334 170 320 170 293 c 4
 170 268 147 240 121 240 c 4
 95 240 70 268 70 294 c 4
EndSplineSet
Validated: 1
EndChar

StartChar: question
Encoding: 63 63 72
Width: 240
VWidth: 0
Flags: W
HStem: 240 94<82.5012 158.468>
VStem: 70 100<251.852 326.6>
LayerCount: 3
Fore
SplineSet
70 294 m 4
 70 320 96 334 119 334 c 4
 143 334 170 320 170 293 c 4
 170 268 147 240 121 240 c 4
 95 240 70 268 70 294 c 4
EndSplineSet
Validated: 1
EndChar
